<svg width="4000" height="2192" viewBox="0 0 4000 2192" fill="none" xmlns="http://www.w3.org/2000/svg">
<g clip-path="url(#clip0)">
<path d="M0 1.04167V1525.12C0 1583.46 81.0417 1679.04 115.396 1722.71C185.708 1812.02 282.896 1881.21 402.312 1847.71C474.021 1827.54 532.146 1774.5 577.771 1715.62C669.437 1597.33 720.146 1452.71 799.875 1326.04C879.604 1199.37 1005.58 1083.98 1155.25 1084.37C1233.04 1084.58 1307.62 1116.44 1373.73 1157.46C1487.94 1228.29 1582.23 1326.58 1687.73 1409.9C1844.35 1533.6 2064.37 1624.67 2258.15 1528.12C2425.06 1444.96 2499.81 1248.21 2639.4 1124.46C2804.56 977.979 3040.27 949.062 3260.4 932.229C3486.44 914.937 3751.5 900.979 3930.19 742.062C3957.27 717.958 3980.9 689.667 3996.56 656.771L3998.96 0L0 1.04167Z" fill="#C7EBEA"/>
<path d="M284.896 2092.71C406.824 2092.52 526.521 2125.4 631.25 2187.83C735.467 2125.89 854.387 2093.02 975.622 2092.66C1096.86 2092.29 1215.97 2124.44 1320.56 2185.75C1425.15 2124.44 1544.27 2092.29 1665.5 2092.66C1786.74 2093.02 1905.66 2125.89 2009.88 2187.83C2114.67 2125.57 2234.31 2092.71 2356.21 2092.71C2478.1 2092.71 2597.75 2125.57 2702.54 2187.83C2808.48 2124.89 2929.56 2092.01 3052.78 2092.72C3176 2093.43 3296.69 2127.7 3401.9 2191.85C3490.82 2137.66 3591.01 2104.66 3694.73 2095.4C3798.45 2086.14 3902.91 2100.86 4000.02 2138.44V1321.77C3969.94 1419.33 3884.5 1468.6 3794.33 1404.6C3725.77 1355.96 3669.54 1303.42 3591.73 1267.77C3495.9 1223.83 3390.67 1205.27 3285.63 1216.21C3138.23 1231.54 2995.21 1294.92 2888.33 1398.17C2776.79 1505.92 2702.35 1653 2571.85 1736.81C2439.96 1821.5 2260.1 1824.65 2125.31 1744.65C2050.9 1700.46 1988.48 1632.92 1905.19 1609.23C1741.13 1562.77 1584.88 1702.56 1416.25 1727.98C1267.15 1750.75 1117.08 1692.1 965.604 1704.17C819.479 1715.79 674.75 1763.56 559.354 1855.58C484.042 1915.6 421.75 1992.81 337.979 2040.35C215.813 2109.71 79.0417 2064.42 0.479167 1952.85C0.159722 2020.4 0 2087.9 0 2155.37C89.2625 2113.97 186.498 2092.58 284.896 2092.71Z" fill="#D4DEEB"/>
<path d="M1663.52 2092.71C1785.44 2092.53 1905.13 2125.4 2009.85 2187.83C2114.65 2125.57 2234.29 2092.71 2356.19 2092.71C2478.08 2092.71 2597.73 2125.57 2702.52 2187.83C2808.45 2124.89 2929.54 2092.01 3052.76 2092.72C3175.98 2093.43 3296.67 2127.7 3401.88 2191.85C3490.79 2137.66 3590.99 2104.66 3694.71 2095.4C3798.43 2086.14 3902.88 2100.86 4000 2138.44V1680.1C4000 1641.55 3999.93 1602.98 3999.79 1564.4C3896.98 1545.06 3785.98 1575.37 3707.29 1644.27C3646.4 1697.6 3601.79 1773.73 3526.54 1803.56C3454.58 1832.06 3372.75 1810.33 3301.75 1779.48C3230.75 1748.62 3161.9 1708.33 3085.08 1698.73C2927.65 1679.06 2807.81 1784.5 2678.56 1853.08C2539.25 1927.08 2379.67 1962.9 2222.12 1954.17C2130.46 1949.08 2040.17 1929.52 1948.54 1924.81C1856.92 1920.1 1760.54 1931.83 1684.52 1983.15C1635.71 2016.1 1598.06 2063.5 1553.27 2101.6C1589.72 2095.66 1626.59 2092.69 1663.52 2092.71V2092.71Z" fill="#DCF8F4"/>
<path d="M1320.54 2185.85C1325.92 2182.69 1331.35 2179.6 1336.83 2176.6C1325.69 2176.77 1314.52 2176.6 1303.38 2176.1C1309.15 2179.27 1314.87 2182.52 1320.54 2185.85Z" fill="#BAFFF6"/>
<path d="M3048.85 2092.71C3173.43 2092.51 3295.62 2126.83 3401.88 2191.85C3490.79 2137.66 3590.99 2104.66 3694.71 2095.4C3798.43 2086.14 3902.88 2100.86 4000 2138.44V1770.17C4000 1746.56 3844.92 1767.27 3830.19 1771C3766.36 1786.91 3707.86 1819.4 3660.6 1865.17C3630.69 1894.5 3605.65 1928.98 3572.62 1954.75C3524.48 1992.4 3462.71 2008.77 3401.79 2013.87C3257.54 2025.94 3106.92 1980.54 2970.25 2028.46C2887.17 2057.5 2820.75 2116.77 2747.33 2163.44C2840.99 2116.8 2944.22 2092.58 3048.85 2092.71V2092.71Z" fill="#C4E4BA"/>
</g>
<defs>
<clipPath id="clip0">
<rect width="4000" height="2191.85" fill="white"/>
</clipPath>
</defs>
</svg>
