<svg width="1920" height="1053" viewBox="0 0 1920 1053" fill="none" xmlns="http://www.w3.org/2000/svg">
<g clip-path="url(#clip0)">
<path d="M0 0.5V732.06C0 760.06 38.9 805.94 55.39 826.9C89.14 869.77 135.79 902.98 193.11 886.9C227.53 877.22 255.43 851.76 277.33 823.5C321.33 766.72 345.67 697.3 383.94 636.5C422.21 575.7 482.68 520.31 554.52 520.5C591.86 520.6 627.66 535.89 659.39 555.58C714.21 589.58 759.47 636.76 810.11 676.75C885.29 736.13 990.9 779.84 1083.91 733.5C1164.03 693.58 1199.91 599.14 1266.91 539.74C1346.19 469.43 1459.33 455.55 1564.99 447.47C1673.49 439.17 1800.72 432.47 1886.49 356.19C1899.49 344.62 1910.83 331.04 1918.35 315.25L1919.5 0L0 0.5Z" fill="#C7EBEA"/>
<path d="M136.75 1004.5C195.275 1004.41 252.73 1020.19 303 1050.16C353.024 1020.43 410.106 1004.65 468.298 1004.48C526.491 1004.3 583.667 1019.73 633.87 1049.16C684.073 1019.73 741.249 1004.3 799.442 1004.48C857.635 1004.65 914.716 1020.43 964.74 1050.16C1015.04 1020.27 1072.47 1004.5 1130.98 1004.5C1189.49 1004.5 1246.92 1020.27 1297.22 1050.16C1348.07 1019.95 1406.19 1004.17 1465.33 1004.51C1524.48 1004.85 1582.41 1021.3 1632.91 1052.09C1675.59 1026.08 1723.69 1010.24 1773.47 1005.79C1823.25 1001.35 1873.39 1008.41 1920.01 1026.45V634.45C1905.57 681.28 1864.56 704.93 1821.28 674.21C1788.37 650.86 1761.38 625.64 1724.03 608.53C1678.03 587.44 1627.52 578.53 1577.1 583.78C1506.35 591.14 1437.7 621.56 1386.4 671.12C1332.86 722.84 1297.13 793.44 1234.49 833.67C1171.18 874.32 1084.85 875.83 1020.15 837.43C984.43 816.22 954.47 783.8 914.49 772.43C835.74 750.13 760.74 817.23 679.8 829.43C608.23 840.36 536.2 812.21 463.49 818C393.35 823.58 323.88 846.51 268.49 890.68C232.34 919.49 202.44 956.55 162.23 979.37C103.59 1012.66 37.94 990.92 0.23 937.37C0.0766667 969.79 0 1002.19 0 1034.58C42.846 1014.71 89.5191 1004.44 136.75 1004.5Z" fill="#D4DEEB"/>
<path d="M798.49 1004.5C857.012 1004.41 914.463 1020.19 964.73 1050.16C1015.03 1020.27 1072.46 1004.5 1130.97 1004.5C1189.48 1004.5 1246.91 1020.27 1297.21 1050.16C1348.06 1019.95 1406.18 1004.17 1465.32 1004.51C1524.47 1004.85 1582.4 1021.3 1632.9 1052.09C1675.58 1026.08 1723.68 1010.24 1773.46 1005.79C1823.24 1001.35 1873.38 1008.41 1920 1026.45V806.45C1920 787.943 1919.97 769.43 1919.9 750.91C1870.55 741.63 1817.27 756.18 1779.5 789.25C1750.27 814.85 1728.86 851.39 1692.74 865.71C1658.2 879.39 1618.92 868.96 1584.84 854.15C1550.76 839.34 1517.71 820 1480.84 815.39C1405.27 805.95 1347.75 856.56 1285.71 889.48C1218.84 925 1142.24 942.19 1066.62 938C1022.62 935.56 979.28 926.17 935.3 923.91C891.32 921.65 845.06 927.28 808.57 951.91C785.14 967.73 767.07 990.48 745.57 1008.77C763.066 1005.92 780.764 1004.49 798.49 1004.5V1004.5Z" fill="#DCF8F4"/>
<path d="M633.86 1049.21C636.44 1047.69 639.05 1046.21 641.68 1044.77C636.33 1044.85 630.97 1044.77 625.62 1044.53C628.393 1046.05 631.14 1047.61 633.86 1049.21Z" fill="#BAFFF6"/>
<path d="M1463.45 1004.5C1523.24 1004.41 1581.9 1020.88 1632.9 1052.09C1675.58 1026.08 1723.68 1010.24 1773.46 1005.79C1823.24 1001.35 1873.38 1008.41 1920 1026.45V849.68C1920 838.35 1845.56 848.29 1838.49 850.08C1807.85 857.718 1779.77 873.31 1757.09 895.28C1742.73 909.36 1730.71 925.91 1714.86 938.28C1691.75 956.35 1662.1 964.21 1632.86 966.66C1563.62 972.45 1491.32 950.66 1425.72 973.66C1385.84 987.6 1353.96 1016.05 1318.72 1038.45C1363.68 1016.06 1413.23 1004.44 1463.45 1004.5V1004.5Z" fill="#C4E4BA"/>
</g>
<defs>
<clipPath id="clip0">
<rect width="1920" height="1052.09" fill="white"/>
</clipPath>
</defs>
</svg>
