<svg width="542" height="482" viewBox="0 0 542 482" fill="none" xmlns="http://www.w3.org/2000/svg">
<path d="M462.1 439.579C356.42 494.827 184.94 494.827 79.2598 439.579C-26.4199 384.331 -26.4199 294.832 79.2598 239.584C184.94 184.336 356.42 184.336 462.1 239.584C567.78 294.832 567.78 384.331 462.1 439.579Z" fill="#FAFAFA"/>
<path d="M351.025 444.506C332.887 444.506 318.183 437.468 318.183 428.788C318.183 420.107 332.887 413.069 351.025 413.069C369.163 413.069 383.866 420.107 383.866 428.788C383.866 437.468 369.163 444.506 351.025 444.506Z" fill="#EBEBEB"/>
<path d="M459.989 259.759L454.593 258.352C454.593 258.352 452.247 249.672 451.192 236.534C449.784 218.939 456.587 205.684 465.149 200.171C475.237 193.602 480.515 199.585 479.928 204.277C479.342 209.203 473.946 216.241 471.366 221.051C467.73 228.088 462.1 238.645 459.989 259.759Z" fill="#C4E4BA"/>
<path opacity="0.2" d="M459.989 259.759L454.593 258.352C454.593 258.352 452.247 249.672 451.192 236.534C449.784 218.939 456.587 205.684 465.149 200.171C475.237 193.602 480.515 199.585 479.928 204.277C479.342 209.203 473.946 216.241 471.366 221.051C467.73 228.088 462.1 238.645 459.989 259.759Z" fill="black"/>
<path d="M457.291 259.525C457.408 259.525 457.408 259.525 457.291 259.525C457.643 259.525 457.76 259.29 457.643 259.056C451.192 227.737 464.446 205.45 472.656 200.992C472.891 200.875 472.891 200.64 472.773 200.406C472.656 200.171 472.422 200.171 472.187 200.289C463.507 204.981 450.136 227.15 456.705 259.29C456.939 259.407 457.174 259.525 457.291 259.525Z" fill="white"/>
<path d="M459.989 259.759C459.989 259.759 459.168 251.079 462.217 242.399C465.267 233.836 470.076 225.743 479.811 222.81C489.429 219.878 497.053 226.915 492.244 233.25C487.435 239.701 469.724 243.689 466.205 263.865L459.989 259.759Z" fill="#C4E4BA"/>
<path d="M462.686 261.988C462.921 261.988 463.156 261.753 463.038 261.519C461.631 245.331 472.539 229.144 486.966 226.329C487.2 226.329 487.318 226.094 487.318 225.86C487.318 225.625 487.083 225.508 486.848 225.508C472.07 228.44 460.81 244.862 462.334 261.519C462.334 261.871 462.452 261.988 462.686 261.988Z" fill="white"/>
<path d="M108.7 390.783C108.7 390.783 106.823 373.422 96.0325 361.692C85.1244 349.962 73.6298 350.08 69.0554 354.302C64.5983 358.525 69.1727 365.094 79.2598 371.428C87.9394 376.824 99.3167 389.258 102.835 397.586L108.7 390.783Z" fill="#C4E4BA"/>
<path opacity="0.2" d="M108.7 390.783C108.7 390.783 106.823 373.422 96.0325 361.692C85.1244 349.962 73.6298 350.08 69.0554 354.302C64.5983 358.525 69.1727 365.094 79.2598 371.428C87.9394 376.824 99.3167 389.258 102.835 397.586L108.7 390.783Z" fill="black"/>
<path d="M106.237 394.067C106.589 393.95 106.706 393.832 106.589 393.598C102.014 375.886 86.532 357.939 73.3953 355.358C73.1607 355.358 72.9261 355.475 72.9261 355.71C72.9261 355.945 73.0434 356.179 73.278 356.179C86.0628 358.76 101.193 376.355 105.768 393.832C105.885 393.95 106.002 394.067 106.237 394.067Z" fill="white"/>
<path d="M106.823 431.603C106.823 431.603 98.8477 433.832 92.9831 429.961C88.0568 426.559 89.2297 422.923 88.6433 420.107C88.0568 417.292 85.5937 415.767 81.6058 415.298C76.6795 414.594 71.9879 413.891 71.1668 408.612C70.3458 403.92 78.087 401.457 75.7412 396.999C73.9818 393.598 70.1112 391.252 66.9443 388.789C63.7775 386.208 65.6541 380.695 73.2781 380.695C82.7787 380.695 84.6554 384.214 88.8779 384.8C93.1004 385.387 95.4462 382.924 100.021 383.51C105.064 384.214 107.644 389.023 107.762 395.123L106.823 431.603Z" fill="#C4E4BA"/>
<path d="M107.293 414.125H107.41C107.644 414.008 107.762 413.773 107.644 413.656C103.422 401.809 80.7847 385.27 71.1668 383.627C70.9322 383.627 70.6976 383.745 70.6976 383.979C70.6976 384.214 70.8149 384.448 71.0495 384.448C80.4328 386.091 102.718 402.395 106.823 414.008C107.058 414.125 107.175 414.125 107.293 414.125Z" fill="white"/>
<path d="M76.3276 407.205C76.4449 407.205 76.4449 407.205 76.5622 407.205C82.4268 404.155 92.5138 401.926 100.138 403.568C100.372 403.568 100.607 403.451 100.607 403.216C100.607 402.982 100.49 402.747 100.255 402.747C92.3965 401.105 82.1922 403.334 76.093 406.383C75.8585 406.501 75.8585 406.735 75.9758 406.97C75.9758 407.087 76.2103 407.205 76.3276 407.205Z" fill="white"/>
<path d="M96.0326 399.463C96.2672 399.463 96.3845 399.228 96.3845 399.111C96.3845 392.073 98.7303 388.554 98.8476 388.554C98.9649 388.319 98.9649 388.085 98.7303 387.967C98.4957 387.85 98.2612 387.85 98.1439 388.085C98.0266 388.202 95.5635 391.721 95.5635 399.111C95.5635 399.228 95.798 399.463 96.0326 399.463Z" fill="white"/>
<path d="M392.546 0.879745L391.842 0.527847C390.669 -0.175949 388.91 -0.175949 387.737 0.527847L272.674 66.8019C271.501 67.5057 270.68 69.0306 270.68 70.3209V230.669C270.68 231.959 271.618 233.484 272.674 234.188L273.378 234.54C274.551 235.244 276.31 235.244 277.483 234.54L392.546 168.149C393.719 167.445 394.54 165.92 394.54 164.63V4.28142C394.54 3.10843 393.602 1.46624 392.546 0.879745Z" fill="#FAFAFA"/>
<path d="M270.68 150.554V70.3209C270.68 69.6171 270.914 68.9133 271.266 68.3268L277.835 72.0804V234.423L277.483 234.657C276.31 235.361 274.551 235.361 273.378 234.657L272.674 234.305C271.501 233.602 270.68 232.077 270.68 230.786V150.554Z" fill="#E0E0E0"/>
<path d="M392.546 3.22573L277.483 69.6171C276.31 70.3209 275.489 71.8458 275.489 73.1361V233.484C275.489 234.775 276.427 235.361 277.483 234.657L392.546 168.266C393.719 167.562 394.54 166.037 394.54 164.747V4.39873C394.54 3.10843 393.602 2.52194 392.546 3.22573Z" fill="#F5F5F5"/>
<path d="M378.236 22.4628L291.792 72.4323C290.619 73.1361 289.798 74.661 289.798 75.9513V82.2855C289.798 83.5757 290.737 84.1622 291.792 83.4584L378.236 33.489C379.409 32.7852 380.23 31.2603 380.23 29.97V23.6358C380.23 22.3455 379.409 21.759 378.236 22.4628Z" fill="#E0E0E0"/>
<path d="M359.956 78.5085C355.3 75.82 355.307 67.0916 359.971 59.0129C364.635 50.9343 372.19 46.5647 376.846 49.2531C381.503 51.9416 381.496 60.6701 376.832 68.7488C372.168 76.8274 364.613 81.197 359.956 78.5085Z" fill="#E0E0E0"/>
<path d="M368.267 54.6028C370.612 53.3125 372.489 54.3682 372.489 57.0661C372.489 59.764 370.612 62.9311 368.267 64.3387C365.921 65.629 364.044 64.5733 364.044 61.8754C364.044 59.1775 365.921 55.8931 368.267 54.6028Z" fill="#DCF8F4"/>
<path d="M367.211 66.2154L369.557 64.8078C373.31 62.5791 376.477 64.3386 376.477 68.796V69.3825C374.366 72.9015 371.551 75.834 368.384 77.7108C365.217 79.4703 362.402 79.7049 360.291 78.7665V78.18C360.291 73.7226 363.34 68.3268 367.211 66.2154Z" fill="#DCF8F4"/>
<path d="M377.767 83.2238L359.001 94.0154C357.593 94.8365 356.42 96.7133 356.42 98.2382C356.42 99.763 357.593 100.35 359.001 99.5284L377.767 88.7369C379.175 87.9158 380.348 86.039 380.348 84.5141C380.23 82.9892 379.175 82.4027 377.767 83.2238Z" fill="#E0E0E0"/>
<path d="M377.767 94.25L359.001 105.042C357.593 105.863 356.42 107.739 356.42 109.264C356.42 110.789 357.593 111.376 359.001 110.555L377.767 99.763C379.175 98.9419 380.348 97.0651 380.348 95.5403C380.23 94.0154 379.175 93.4289 377.767 94.25Z" fill="#E0E0E0"/>
<path d="M377.767 105.276L359.001 116.068C357.593 116.889 356.42 118.766 356.42 120.29C356.42 121.815 357.593 122.402 359.001 121.581L377.767 110.789C379.175 109.968 380.348 108.091 380.348 106.566C380.23 105.042 379.175 104.455 377.767 105.276Z" fill="#E0E0E0"/>
<path d="M377.767 116.302L359.001 127.094C357.593 127.915 356.42 129.792 356.42 131.317C356.42 132.841 357.593 133.428 359.001 132.607L377.767 121.815C379.175 120.994 380.348 119.117 380.348 117.593C380.23 116.068 379.175 115.481 377.767 116.302Z" fill="#E0E0E0"/>
<path d="M377.767 132.724L359.001 143.516C357.593 144.337 356.42 146.331 356.42 147.973V158.647C356.42 160.29 357.593 160.876 359.001 160.172L377.767 149.381C379.175 148.56 380.348 146.565 380.348 144.923V134.249C380.23 132.607 379.175 131.903 377.767 132.724Z" fill="#DCF8F4"/>
<path d="M339.647 61.2889L292.262 88.6196C290.854 89.4407 289.681 91.3175 289.681 92.8424C289.681 94.3673 290.854 94.9538 292.262 94.1327L339.647 66.6846C341.055 65.8635 342.228 63.9868 342.228 62.4619C342.111 61.0543 341.055 60.4678 339.647 61.2889Z" fill="#DCF8F4"/>
<path d="M339.647 72.1977L292.262 99.5285C290.854 100.35 289.681 102.226 289.681 103.751C289.681 105.276 290.854 105.863 292.262 105.042L339.647 77.7108C341.055 76.8897 342.228 75.0129 342.228 73.488C342.111 71.9631 341.055 71.3766 339.647 72.1977Z" fill="#DCF8F4"/>
<path d="M339.647 83.2238L292.262 110.555C290.854 111.376 289.681 113.252 289.681 114.777C289.681 116.302 290.854 116.889 292.262 116.068L339.647 88.7369C341.055 87.9158 342.228 86.039 342.228 84.5141C342.111 82.9892 341.055 82.4027 339.647 83.2238Z" fill="#DCF8F4"/>
<path d="M177.668 102.344L173.21 99.7631C171.803 98.942 169.574 98.942 168.167 99.7631L68.469 157.357C67.0615 158.178 65.8886 160.172 65.8886 161.814V288.028C65.8886 289.671 67.0615 291.665 68.469 292.486L72.9261 295.066C74.3336 295.887 76.5621 295.887 77.9696 295.066L177.668 237.472C179.075 236.651 180.248 234.657 180.248 233.132L180.131 106.684C180.131 105.159 179.075 103.165 177.668 102.344Z" fill="#455A64"/>
<path d="M65.7713 224.804V161.697C65.7713 160.876 66.0059 159.938 66.4751 159.234L80.0809 167.093V293.659L77.8524 294.949C76.4449 295.77 74.2163 295.77 72.8088 294.949L68.3518 292.368C66.9442 291.547 65.7713 289.553 65.7713 288.028V224.804V224.804Z" fill="#263238"/>
<path d="M177.668 105.276L77.9696 162.87C76.5621 163.691 75.3892 165.685 75.3892 167.327V293.542C75.3892 295.184 76.5621 295.77 77.9696 295.066L177.668 237.472C179.075 236.651 180.248 234.657 180.248 233.132L180.131 106.684C180.131 105.159 179.075 104.455 177.668 105.276Z" fill="#37474F"/>
<path d="M85.0072 166.976L170.395 117.593C171.803 116.771 172.976 117.475 172.976 119.117V215.068C172.976 216.71 171.803 218.705 170.395 219.526L85.0072 268.909C83.5997 269.73 82.4268 269.026 82.4268 267.384V171.433C82.544 169.673 83.5997 167.679 85.0072 166.976Z" fill="white"/>
<path d="M153.271 139.058C148.697 141.639 145.06 148.09 145.06 153.369C145.06 158.647 148.697 160.759 153.271 158.061C157.845 155.48 161.481 149.029 161.481 143.75C161.481 138.472 157.728 136.36 153.271 139.058Z" fill="#C4E4BA"/>
<path d="M131.924 197.356L147.172 174.248C149.635 170.495 153.975 170.377 156.672 173.779L172.976 194.072V214.951C172.976 216.593 171.803 218.587 170.395 219.291L85.0072 268.557C83.5997 269.378 82.4268 268.674 82.4268 267.032V212.957L103.657 168.031C105.533 164.043 109.169 163.691 111.632 167.445L131.924 197.356Z" fill="#C4E4BA"/>
<path d="M155.969 386.912L128.053 370.724C125.238 369.082 123.01 365.211 123.01 361.927V203.104C123.01 199.819 125.238 195.948 128.053 194.306L318.066 84.7487C320.881 83.1065 325.455 83.1065 328.27 84.7487L356.186 100.819C359.001 102.461 361.229 106.332 361.229 109.616V268.439C361.229 271.724 359.001 275.595 356.186 277.237L166.29 386.912C163.358 388.554 158.784 388.554 155.969 386.912Z" fill="#455A64"/>
<path d="M123.01 203.221C123.01 201.579 123.596 199.819 124.534 198.177L165.938 222.106V387.146C163.123 388.554 158.784 388.554 156.086 387.029L128.171 370.842C125.356 369.2 123.127 365.329 123.127 362.044L123.01 203.221Z" fill="#37474F"/>
<path d="M166.173 216.359L356.186 106.684C359.001 105.042 361.229 106.332 361.229 109.616V268.439C361.229 271.724 359.001 275.595 356.186 277.237L166.29 386.912C163.475 388.554 161.247 387.264 161.247 383.979V225.156C161.129 221.989 163.358 218.001 166.173 216.359Z" fill="#37474F"/>
<path d="M149.518 206.74C146.703 208.382 144.474 212.253 144.474 215.537V380.226L139.665 377.528V212.84C139.665 209.555 141.894 205.684 144.709 204.042L339.765 91.4348L344.574 94.1327L149.518 206.74Z" fill="#263238"/>
<path d="M144.709 204.042L339.413 91.6694L344.339 94.3673L149.518 206.857C148.11 207.678 146.82 209.086 145.882 210.611L141.073 207.913C142.128 206.271 143.301 204.863 144.709 204.042Z" fill="#37474F"/>
<path d="M174.266 178.705L177.668 176.711C179.075 175.89 181.304 175.89 182.711 176.711L195.613 184.101L197.724 183.397V186.095C197.724 186.682 197.373 187.151 196.669 187.62L192.212 190.201C190.804 191.022 188.576 191.022 187.168 190.201L173.21 182.107C172.507 181.755 172.155 181.169 172.155 180.7V178.002L174.266 178.705Z" fill="#263238"/>
<path d="M173.21 176.594L177.668 174.013C179.075 173.192 181.304 173.192 182.711 174.013L196.669 182.107C198.076 182.928 198.076 184.219 196.669 185.04L192.212 187.62C190.804 188.441 188.576 188.441 187.168 187.62L173.21 179.527C171.803 178.706 171.803 177.415 173.21 176.594Z" fill="#455A64"/>
<path d="M288.626 112.666L292.027 110.672C293.434 109.851 295.663 109.851 297.071 110.672L309.973 118.062L312.084 117.358V120.056C312.084 120.642 311.732 121.112 311.028 121.581L306.571 124.161C305.164 124.982 302.935 124.982 301.528 124.161L287.57 116.068C286.866 115.716 286.514 115.129 286.514 114.66V111.962L288.626 112.666Z" fill="#263238"/>
<path d="M287.57 110.555L292.027 107.974C293.434 107.153 295.663 107.153 297.07 107.974L311.028 116.068C312.436 116.889 312.436 118.179 311.028 119L306.571 121.581C305.164 122.402 302.935 122.402 301.528 121.581L287.57 113.487C286.162 112.666 286.162 111.376 287.57 110.555Z" fill="#455A64"/>
<path d="M251.679 112.079V128.619L261.179 134.132V108.912C261.179 107.622 260.241 107.153 259.185 107.739L251.679 112.079Z" fill="#263238"/>
<path d="M201.712 129.557V160.289L208.75 164.395L213.559 161.58V136.478C213.559 135.187 214.497 133.545 215.553 132.959L251.679 112.079L259.185 107.739C260.358 107.153 261.179 107.622 261.179 108.912V134.132L265.988 131.317V100.584C265.988 100.467 265.988 100.35 265.988 100.232C265.871 99.0593 264.933 97.6517 263.994 97.0652L260.945 95.3057C259.772 94.7192 258.012 94.7192 256.839 95.3057L203.706 125.921C202.533 126.742 201.712 128.267 201.712 129.557Z" fill="#455A64"/>
<path d="M208.75 133.663V164.395L213.559 161.58V136.478C213.559 135.187 214.497 133.545 215.553 132.959L251.679 112.079L259.185 107.739C260.358 107.153 261.179 107.622 261.179 108.912V134.132L265.988 131.317V100.584C265.988 100.467 265.988 100.35 265.988 100.232C265.871 99.2938 264.933 98.8246 263.994 99.4111L210.861 130.026C209.688 130.73 208.75 132.372 208.75 133.663Z" fill="#37474F"/>
<path d="M137.319 442.16L132.51 439.462L137.319 302.104C137.319 300.462 138.492 298.468 139.9 297.647L230.097 245.566C231.504 244.745 233.029 242.868 233.616 241.343L236.431 233.132C237.017 231.607 238.542 229.731 239.949 228.91L282.526 205.098C283.934 204.277 285.107 204.981 285.107 206.623V353.951C285.107 355.593 283.934 357.587 282.526 358.408L137.319 442.16Z" fill="#C7EBEA"/>
<path opacity="0.2" d="M137.319 442.16L132.51 439.462L137.319 302.104C137.319 300.462 138.492 298.468 139.9 297.647L230.097 245.566C231.504 244.745 233.029 242.868 233.616 241.343L236.431 233.132C237.017 231.607 238.542 229.731 239.949 228.91L282.526 205.098C283.934 204.277 285.107 204.981 285.107 206.623V353.951C285.107 355.593 283.934 357.587 282.526 358.408L137.319 442.16Z" fill="black"/>
<path d="M206.756 209.438L106.002 267.618C104.829 268.322 104.008 269.847 104.008 271.137V436.999C104.008 438.289 104.947 438.875 106.002 438.172L206.756 379.991C207.929 379.287 208.75 377.762 208.75 376.472V210.611C208.75 209.321 207.812 208.851 206.756 209.438Z" fill="white"/>
<g opacity="0.5">
<path opacity="0.5" d="M105.064 439.11C105.416 439.11 105.885 438.993 106.237 438.758L206.991 380.578C208.281 379.874 209.336 378.114 209.336 376.589V210.728C209.336 209.907 208.984 209.203 208.398 208.851C207.812 208.5 207.108 208.617 206.404 208.969L105.65 267.149C104.36 267.853 103.305 269.612 103.305 271.137V436.999C103.305 437.82 103.657 438.523 104.243 438.875C104.478 438.993 104.712 439.11 105.064 439.11ZM207.577 209.79C207.694 209.79 207.694 209.79 207.812 209.79C208.046 209.907 208.163 210.142 208.163 210.611V376.472C208.163 377.528 207.342 378.935 206.404 379.522L105.65 437.702C105.299 437.937 104.947 437.937 104.829 437.82C104.595 437.702 104.478 437.468 104.478 436.999V271.137C104.478 270.082 105.299 268.674 106.237 268.088L206.991 209.907C207.225 209.907 207.46 209.79 207.577 209.79Z" fill="#E0E0E0"/>
</g>
<path d="M196.669 231.842L149.283 259.173C147.876 259.994 146.703 261.871 146.703 263.396C146.703 264.92 147.876 265.507 149.283 264.686L196.669 237.355C198.076 236.534 199.249 234.657 199.249 233.132C199.249 231.607 198.076 231.021 196.669 231.842Z" fill="#37474F"/>
<path d="M196.669 248.264L115.972 294.832C114.565 295.653 113.392 297.53 113.392 299.055C113.392 300.58 114.565 301.166 115.972 300.345L196.669 253.777C198.076 252.956 199.249 251.079 199.249 249.554C199.249 248.029 198.076 247.443 196.669 248.264Z" fill="#E0E0E0"/>
<path d="M196.669 264.803L115.972 311.371C114.565 312.192 113.392 314.069 113.392 315.594C113.392 317.119 114.565 317.705 115.972 316.884L196.669 270.316C198.076 269.495 199.249 267.618 199.249 266.093C199.249 264.569 198.076 263.982 196.669 264.803Z" fill="#E0E0E0"/>
<path d="M196.669 281.342L115.972 327.91C114.565 328.731 113.392 330.608 113.392 332.133C113.392 333.658 114.565 334.244 115.972 333.423L196.669 286.855C198.076 286.034 199.249 284.158 199.249 282.633C199.249 281.108 198.076 280.521 196.669 281.342Z" fill="#E0E0E0"/>
<path d="M196.669 297.764L115.972 344.332C114.565 345.153 113.392 347.03 113.392 348.555C113.392 350.08 114.565 350.666 115.972 349.845L196.669 303.277C198.076 302.456 199.249 300.579 199.249 299.055C199.249 297.53 198.076 297.06 196.669 297.764Z" fill="#E0E0E0"/>
<path d="M196.669 314.303L115.972 360.871C114.565 361.692 113.392 363.569 113.392 365.094C113.392 366.619 114.565 367.205 115.972 366.384L196.669 319.817C198.076 318.995 199.249 317.119 199.249 315.594C199.249 314.069 198.076 313.482 196.669 314.303Z" fill="#E0E0E0"/>
<path d="M196.669 330.843L115.972 377.411C114.565 378.232 113.392 380.108 113.392 381.633C113.392 383.158 114.565 383.745 115.972 382.924L196.669 336.356C198.076 335.535 199.249 333.658 199.249 332.133C199.249 330.608 198.076 330.022 196.669 330.843Z" fill="#E0E0E0"/>
<path d="M196.669 347.382L115.972 393.95C114.565 394.771 113.392 396.648 113.392 398.172C113.392 399.697 114.565 400.284 115.972 399.463L196.669 352.895C198.076 352.074 199.249 350.197 199.249 348.672C199.249 347.147 198.076 346.561 196.669 347.382Z" fill="#E0E0E0"/>
<path d="M221.065 217.766L120.312 275.947C119.139 276.65 118.318 278.175 118.318 279.466V445.327C118.318 446.617 119.256 447.203 120.312 446.5L221.065 388.319C222.238 387.615 223.059 386.091 223.059 384.8V218.939C223.059 217.649 222.121 217.062 221.065 217.766Z" fill="white"/>
<path d="M119.374 447.321C119.726 447.321 120.195 447.204 120.547 446.969L221.3 388.789C222.59 388.085 223.646 386.208 223.646 384.8V218.939C223.646 218.118 223.294 217.414 222.708 217.062C222.121 216.71 221.417 216.828 220.714 217.18L119.96 275.36C118.67 276.064 117.614 277.941 117.614 279.348V445.21C117.614 446.031 117.966 446.734 118.553 447.086C118.787 447.204 119.022 447.321 119.374 447.321ZM221.887 218.001C222.004 218.001 222.004 218.001 222.121 218.001C222.356 218.118 222.473 218.353 222.473 218.822V384.683C222.473 385.739 221.652 387.146 220.714 387.733L119.96 445.913C119.608 446.148 119.256 446.148 119.139 446.031C118.904 445.913 118.787 445.679 118.787 445.21V279.466C118.787 278.41 119.608 277.002 120.547 276.416L221.3 218.235C221.535 218.118 221.769 218.001 221.887 218.001Z" fill="#E0E0E0"/>
<path d="M210.978 240.053L163.593 267.384C162.185 268.205 161.012 270.082 161.012 271.607C161.012 273.131 162.185 273.718 163.593 272.897L210.978 245.566C212.386 244.745 213.559 242.868 213.559 241.343C213.559 239.818 212.386 239.232 210.978 240.053Z" fill="#E0E0E0"/>
<path d="M210.978 256.592L130.282 303.16C128.874 303.981 127.701 305.858 127.701 307.383C127.701 308.908 128.874 309.494 130.282 308.673L210.978 262.105C212.386 261.284 213.559 259.407 213.559 257.883C213.559 256.358 212.386 255.771 210.978 256.592Z" fill="#E0E0E0"/>
<path d="M210.978 273.014L130.282 319.582C128.874 320.403 127.701 322.28 127.701 323.805C127.701 325.33 128.874 325.916 130.282 325.095L210.978 278.527C212.386 277.706 213.559 275.829 213.559 274.304C213.559 272.78 212.386 272.193 210.978 273.014Z" fill="#E0E0E0"/>
<path d="M210.978 289.553L130.282 336.121C128.874 336.942 127.701 338.819 127.701 340.344C127.701 341.869 128.874 342.455 130.282 341.634L210.978 295.066C212.386 294.245 213.559 292.369 213.559 290.844C213.559 289.319 212.386 288.732 210.978 289.553Z" fill="#E0E0E0"/>
<path d="M210.978 306.092L130.282 352.66C128.874 353.481 127.701 355.358 127.701 356.883C127.701 358.408 128.874 358.995 130.282 358.173L210.978 311.606C212.386 310.784 213.559 308.908 213.559 307.383C213.559 305.858 212.386 305.271 210.978 306.092Z" fill="#E0E0E0"/>
<path d="M210.978 322.514L130.282 369.082C128.874 369.903 127.701 371.78 127.701 373.305C127.701 374.83 128.874 375.416 130.282 374.595L210.978 328.027C212.386 327.206 213.559 325.33 213.559 323.805C213.559 322.28 212.386 321.811 210.978 322.514Z" fill="#E0E0E0"/>
<path d="M210.978 339.054L130.282 385.621C128.874 386.443 127.701 388.319 127.701 389.844C127.701 391.369 128.874 391.956 130.282 391.135L210.978 344.567C212.386 343.746 213.559 341.869 213.559 340.344C213.559 338.819 212.386 338.233 210.978 339.054Z" fill="#E0E0E0"/>
<path d="M210.978 355.593L130.282 402.161C128.874 402.982 127.701 404.858 127.701 406.383C127.701 407.908 128.874 408.495 130.282 407.674L210.978 361.106C212.386 360.285 213.559 358.408 213.559 356.883C213.559 355.358 212.386 354.772 210.978 355.593Z" fill="#E0E0E0"/>
<path d="M137.319 442.16L160.66 315.711C160.895 314.069 162.302 312.192 163.71 311.371L306.337 229.027C307.744 228.206 308.682 228.91 308.331 230.434L285.576 353.951C285.341 355.593 283.934 357.47 282.526 358.291L137.319 442.16Z" fill="#C7EBEA"/>
<path d="M313.609 288.263V370.372C313.609 372.015 312.436 374.009 311.028 374.83L254.142 407.674C252.734 408.495 250.506 408.495 249.216 407.791C247.925 407.087 246.87 405.093 246.87 403.451V321.341C246.87 319.699 248.043 317.705 249.45 316.884L306.337 284.04C307.744 283.219 309.973 283.219 311.263 283.923C312.553 284.744 313.609 286.621 313.609 288.263Z" fill="#455A64"/>
<path d="M246.87 362.396V321.341C246.87 320.52 247.104 319.582 247.573 318.878L254.728 322.984V407.439L254.142 407.791C252.734 408.612 250.506 408.612 249.216 407.908C247.925 407.204 246.87 405.21 246.87 403.568V362.396Z" fill="#263238"/>
<path d="M311.028 286.855L254.142 319.699C252.734 320.52 251.561 322.514 251.561 324.157V406.266C251.561 407.908 252.734 408.495 254.142 407.791L311.028 374.947C312.436 374.126 313.609 372.132 313.609 370.49V288.38C313.609 286.621 312.436 286.034 311.028 286.855Z" fill="#37474F"/>
<path d="M306.219 295.066L258.833 322.397C257.426 323.218 256.253 325.212 256.253 326.855V387.029C256.253 388.671 257.426 389.258 258.833 388.554L306.219 361.223C307.627 360.402 308.8 358.408 308.8 356.766V296.591C308.8 294.949 307.627 294.245 306.219 295.066Z" fill="white"/>
<path d="M297.305 309.142C294.138 310.902 291.675 315.359 291.675 318.878C291.675 322.514 294.138 323.922 297.305 322.163C300.472 320.403 302.935 315.946 302.935 312.427C302.935 308.79 300.472 307.266 297.305 309.142Z" fill="#C4E4BA"/>
<path d="M273.26 330.491L284.872 347.734L293.786 334.362C295.194 332.25 297.657 332.133 299.299 334.127L308.682 345.857V356.649C308.682 358.291 307.509 360.285 306.102 360.989L258.716 388.319C257.309 389.14 256.136 388.437 256.136 386.794V356.766L268.451 330.725C269.742 328.497 271.853 328.379 273.26 330.491Z" fill="#C4E4BA"/>
<path opacity="0.2" d="M273.26 330.491L284.872 347.734L293.786 334.362C295.194 332.25 297.657 332.133 299.299 334.127L308.682 345.857V356.649C308.682 358.291 307.509 360.285 306.102 360.989L258.716 388.319C257.309 389.14 256.136 388.437 256.136 386.794V356.766L268.451 330.725C269.742 328.497 271.853 328.379 273.26 330.491Z" fill="black"/>
<path d="M492.596 273.131C455.414 250.727 432.66 210.494 432.66 167.093V125.452C432.66 124.161 431.721 123.692 430.666 124.279L325.103 185.157C323.93 185.861 323.109 187.386 323.109 188.676V230.317C323.109 273.601 345.747 313.717 382.576 336.121C384.101 337.06 385.978 337.06 387.502 336.121L492.596 275.477C493.651 274.891 493.651 273.835 492.596 273.131Z" fill="white"/>
<path d="M385.039 337.411C385.978 337.411 386.916 337.177 387.854 336.708L492.948 276.064C493.651 275.595 494.121 275.008 494.121 274.422C494.121 273.718 493.769 273.131 493.065 272.662C456.235 250.493 433.481 210.024 433.481 167.093V125.452C433.481 124.631 433.129 123.927 432.542 123.575C431.956 123.223 431.252 123.34 430.548 123.692L324.986 184.57C323.696 185.274 322.64 187.034 322.64 188.559V230.2C322.64 273.366 345.512 314.069 382.342 336.473C383.163 337.177 384.101 337.411 385.039 337.411ZM492.244 273.601C492.596 273.835 492.83 274.07 492.83 274.304C492.83 274.539 492.596 274.774 492.244 275.008L387.151 335.652C385.743 336.473 384.101 336.473 382.811 335.652C346.333 313.482 323.578 273.131 323.578 230.317V188.676C323.578 187.62 324.399 186.213 325.338 185.626L430.9 124.748C431.252 124.513 431.604 124.513 431.721 124.631C431.956 124.748 432.073 124.982 432.073 125.452V167.093C432.073 210.376 455.18 251.314 492.244 273.601Z" fill="#E0E0E0"/>
<path d="M368.149 176.829L339.882 193.133C338.474 193.954 337.302 195.831 337.302 197.356C337.302 198.881 338.474 199.467 339.882 198.646L368.149 182.342C369.557 181.521 370.73 179.644 370.73 178.119C370.73 176.594 369.557 176.008 368.149 176.829Z" fill="#E0E0E0"/>
<path d="M385.039 191.843C385.039 193.368 386.212 193.954 387.62 193.133L415.887 176.829C417.294 176.008 418.467 174.131 418.467 172.606C418.467 171.081 417.294 170.495 415.887 171.316L387.62 187.62C386.212 188.441 385.039 190.318 385.039 191.843Z" fill="#E0E0E0"/>
<path d="M338.826 240.522C339.061 241.93 340.351 242.399 341.759 241.578L417.646 197.708C419.054 196.887 419.992 195.127 419.758 193.72C419.523 192.312 418.233 191.843 416.825 192.664L340.938 236.534C339.53 237.355 338.592 239.115 338.826 240.522Z" fill="#E0E0E0"/>
<path d="M341.876 255.185C342.228 256.475 343.753 256.944 345.16 256.123L421.048 212.253C422.455 211.432 423.276 209.79 422.924 208.382C422.573 207.092 421.165 206.623 419.758 207.444L343.87 251.314C342.462 252.252 341.524 253.894 341.876 255.185Z" fill="#E0E0E0"/>
<path d="M346.685 269.026C347.154 270.199 348.796 270.551 350.204 269.73L426.091 225.86C427.499 225.039 428.203 223.397 427.733 222.224C427.264 221.051 425.739 220.581 424.332 221.402L348.444 265.272C346.919 266.093 346.098 267.736 346.685 269.026Z" fill="#E0E0E0"/>
<path d="M352.784 281.929C353.371 283.102 355.13 283.336 356.537 282.515L432.425 238.645C433.833 237.824 434.419 236.299 433.833 235.126C433.246 233.953 431.604 233.719 430.197 234.54L354.309 278.41C352.784 279.231 352.198 280.756 352.784 281.929Z" fill="#E0E0E0"/>
<path d="M396.651 278.644C397.472 279.7 399.232 279.935 400.639 279.114L443.216 254.481C444.623 253.66 445.093 252.135 444.272 251.079C443.451 250.023 441.691 249.789 440.284 250.61L397.707 275.243C396.299 276.064 395.83 277.589 396.651 278.644Z" fill="#E0E0E0"/>
<path d="M412.251 301.4C412.251 301.4 434.536 316.063 461.279 317.119C455.883 320.286 443.568 321.576 434.067 320.286C434.067 320.286 435.357 325.799 444.975 332.837C444.975 332.837 429.375 337.06 401.343 307.617L412.251 301.4Z" fill="#DCF8F4"/>
<path d="M388.675 306.914C393.484 311.723 403.102 312.192 409.67 308.321C416.239 304.568 417.294 297.999 412.485 293.072C407.677 288.263 398.997 286.973 392.429 290.726C385.743 294.597 383.866 302.104 388.675 306.914Z" fill="#DCF8F4"/>
<path opacity="0.2" d="M388.675 306.914C393.484 311.723 403.102 312.192 409.67 308.321C416.239 304.568 417.294 297.999 412.485 293.072C407.677 288.263 398.997 286.973 392.429 290.726C385.743 294.597 383.866 302.104 388.675 306.914Z" fill="black"/>
<path d="M388.675 305.389C393.484 310.198 403.102 310.667 409.67 306.796C416.239 303.043 417.294 296.474 412.485 291.547C407.677 286.738 398.997 285.448 392.429 289.201C385.743 293.19 383.866 300.579 388.675 305.389Z" fill="#DCF8F4"/>
<path d="M399.701 305.975C402.633 305.975 405.565 305.271 407.911 303.864C410.257 302.574 411.664 300.697 411.899 298.937C412.134 296.943 410.961 295.301 410.022 294.245C407.911 292.017 404.51 290.726 400.874 290.726C398.411 290.726 396.065 291.313 394.188 292.486C391.608 294.011 389.966 296.239 389.614 298.468C389.379 300.11 389.966 301.752 391.256 303.043C393.015 304.919 396.065 305.975 399.701 305.975Z" fill="#DCF8F4"/>
<path opacity="0.3" d="M399.701 305.975C402.633 305.975 405.565 305.271 407.911 303.864C410.257 302.574 411.664 300.697 411.899 298.937C412.134 296.943 410.961 295.301 410.022 294.245C407.911 292.017 404.51 290.726 400.874 290.726C398.411 290.726 396.065 291.313 394.188 292.486C391.608 294.011 389.966 296.239 389.614 298.468C389.379 300.11 389.966 301.752 391.256 303.043C393.015 304.919 396.065 305.975 399.701 305.975Z" fill="black"/>
<path d="M394.071 293.893C396.065 292.72 398.411 292.134 400.756 292.134C404.275 292.134 407.677 293.424 409.905 295.653C410.726 296.474 411.547 297.647 411.782 299.055C411.43 300.814 410.022 302.574 407.794 303.864C405.448 305.154 402.516 305.975 399.583 305.975C395.947 305.975 392.898 304.919 391.021 303.043C390.083 302.104 389.614 301.049 389.379 299.876C389.848 297.647 391.608 295.301 394.071 293.893Z" fill="#DCF8F4"/>
<path opacity="0.2" d="M394.071 293.893C396.065 292.72 398.411 292.134 400.756 292.134C404.275 292.134 407.677 293.424 409.905 295.653C410.726 296.474 411.547 297.647 411.782 299.055C411.43 300.814 410.022 302.574 407.794 303.864C405.448 305.154 402.516 305.975 399.583 305.975C395.947 305.975 392.898 304.919 391.021 303.043C390.083 302.104 389.614 301.049 389.379 299.876C389.848 297.647 391.608 295.301 394.071 293.893Z" fill="black"/>
<path d="M344.861 269.499C343.664 264.79 346.511 260.002 351.22 258.805C355.928 257.608 360.716 260.455 361.913 265.164C363.11 269.873 360.263 274.661 355.555 275.858C350.846 277.055 346.058 274.208 344.861 269.499Z" fill="#263238"/>
<path d="M332.141 416.706H338.357V427.38H332.141V416.706Z" fill="#FFA8A7"/>
<path d="M353.722 416.119L359.939 416.354L360.291 405.093L353.722 404.859V416.119Z" fill="#FFA8A7"/>
<path d="M332.61 325.447C332.61 331.429 331.789 374.243 331.789 374.243C331.672 376.003 330.029 379.053 330.381 385.621C330.851 394.536 331.906 421.984 331.906 421.984C331.906 421.984 334.956 423.744 338.826 422.101C338.826 422.101 344.339 385.621 345.395 376.824C346.333 369.082 347.975 348.203 347.975 348.203L351.377 373.422C351.377 373.422 350.204 377.997 350.556 383.275C350.79 387.381 353.253 412.718 353.253 412.718C353.253 412.718 356.186 414.712 360.408 413.304C360.408 413.304 363.575 377.176 363.575 373.422C363.692 369.2 361.464 325.564 361.464 325.564H332.61V325.447Z" fill="#37474F"/>
<path d="M335.308 291.782C335.308 291.782 332.962 293.19 332.962 298.82V311.019L332.727 334.01C341.641 338.702 352.901 338.936 362.402 332.016C362.402 332.016 361.933 302.456 361.933 297.647C361.933 292.838 359.235 286.504 351.846 286.034L342.228 288.263L335.308 291.782Z" fill="white"/>
<path d="M361.933 317.119C359.001 305.037 358.062 292.838 357.593 289.788L365.569 302.574C365.569 302.574 367.328 312.544 368.267 317.705C369.088 322.28 371.668 330.608 373.193 334.244C373.427 334.831 374.835 335.769 375.421 336.004C377.063 336.825 377.884 337.763 379.175 338.819C380.23 339.64 381.051 339.875 380.934 340.109C380.817 340.579 380.23 341.282 379.057 341.048C378.471 340.93 377.65 340.579 376.712 340.109C376.712 340.109 377.65 341.986 379.409 343.746C381.872 346.209 382.224 347.851 377.767 348.438C374.952 348.789 372.606 347.265 369.791 341.4C368.97 339.64 367.68 337.06 367.094 334.714C365.334 328.849 362.871 320.872 361.933 317.119Z" fill="#FFA8A7"/>
<path d="M355.599 286.034C358.297 285.565 360.173 285.8 361.933 287.794C363.106 289.084 364.279 291.078 366.273 303.512C368.032 314.303 372.958 332.133 372.958 332.133C372.958 332.133 370.378 335.3 366.155 334.596L357.358 302.339L355.599 286.034Z" fill="#37474F"/>
<path d="M351.611 286.504C351.611 286.504 355.013 289.201 355.834 293.072C356.772 297.06 356.889 341.048 356.889 341.048C356.889 341.048 361.581 340.227 363.809 338.467C363.809 338.467 363.809 303.981 363.809 298.233C363.809 292.486 362.519 283.806 351.611 286.504Z" fill="#37474F"/>
<path d="M341.993 288.732C341.993 288.732 347.154 294.128 347.271 307.383C347.389 320.638 347.623 343.746 347.623 343.746C347.623 343.746 338.474 345.622 331.906 341.751C331.906 341.751 332.61 308.673 332.727 303.747C332.844 298.116 331.202 293.307 334.369 291.665C337.653 289.905 341.993 288.732 341.993 288.732Z" fill="#37474F"/>
<path d="M338.123 273.601C338.123 273.601 339.53 280.287 340.117 281.46C340.703 282.515 341.876 282.867 341.876 282.867L341.759 278.175L338.123 273.601Z" fill="#263238"/>
<path d="M339.882 263.982C339.882 263.982 338.357 263.747 337.184 264.92C336.011 266.093 336.715 269.847 338.123 273.601L340.82 273.953L339.882 263.982Z" fill="#263238"/>
<path d="M341.524 273.953C340.938 274.304 340.234 273.249 339.53 272.545C338.826 271.841 336.715 270.903 335.659 273.131C334.604 275.477 336.598 278.527 338.357 279.114C341.289 280.052 341.759 278.175 341.759 278.175L341.993 288.85L352.198 295.653C352.198 295.653 352.901 291.899 351.611 288.615V285.331C351.611 285.331 354.309 285.682 355.599 285.565C357.828 285.213 359.118 283.571 359.822 281.225C360.877 277.471 361.229 274.422 360.408 267.032C359.47 258.938 349.969 258.821 344.808 261.988C339.647 265.038 341.524 273.953 341.524 273.953Z" fill="#FFA8A7"/>
<path d="M352.198 295.536L341.876 287.207V285.917C341.876 285.917 339.53 286.386 339.178 289.671L345.395 299.172L347.975 294.245L352.198 295.536Z" fill="#F0F0F0"/>
<path d="M351.611 285.213C351.611 285.213 353.84 285.565 354.778 287.09C355.716 288.732 357.476 295.418 357.476 295.418L354.192 292.838L352.198 295.418C352.432 293.307 352.198 291.078 351.611 288.38V285.213Z" fill="#F0F0F0"/>
<path d="M341.524 274.774C341.289 274.774 340.234 273.014 339.53 272.428C338.592 271.607 339.765 263.865 339.765 263.865C339.765 263.865 338.826 261.988 340.703 259.994C341.993 258.586 344.104 258.469 347.741 257.883C349.617 257.531 352.549 257.061 354.426 256.71C356.655 256.24 358.649 255.888 360.173 257.179C361.464 258.234 361.933 260.229 361.346 261.753C361.229 262.105 360.994 262.457 360.643 262.692C360.173 263.161 359.704 263.63 359.001 263.865C359.001 263.865 358.062 264.803 354.543 265.155C351.142 265.624 345.747 265.038 344.926 264.92C343.87 264.803 343.753 265.742 343.166 268.439C342.932 270.903 342.462 274.774 341.524 274.774Z" fill="#263238"/>
<path d="M339.882 264.569L336.598 262.809C337.067 261.871 338.123 261.519 339.061 261.988C339.999 262.457 340.351 263.63 339.882 264.569Z" fill="#263238"/>
<path d="M351.611 285.213C351.611 285.213 346.802 284.275 345.043 283.336C343.87 282.75 342.932 281.694 342.697 280.99C342.697 280.99 343.049 282.398 343.987 283.688C345.277 285.331 351.494 286.386 351.494 286.386L351.611 285.213Z" fill="#F28F8F"/>
<path d="M350.438 272.662C350.438 273.249 349.969 273.718 349.5 273.718C348.913 273.718 348.562 273.249 348.562 272.662C348.562 272.076 349.031 271.607 349.5 271.607C349.969 271.724 350.438 272.193 350.438 272.662Z" fill="#263238"/>
<path d="M349.383 269.026L347.271 270.199C346.92 269.612 347.154 268.909 347.741 268.557C348.327 268.205 349.031 268.439 349.383 269.026Z" fill="#263238"/>
<path d="M351.142 279.348L353.371 280.169C353.136 280.756 352.432 281.108 351.846 280.873C351.259 280.756 350.907 280.052 351.142 279.348Z" fill="#F28F8F"/>
<path d="M359.001 269.847L357.124 268.439C357.476 267.853 358.297 267.736 358.766 268.205C359.352 268.557 359.47 269.261 359.001 269.847Z" fill="#263238"/>
<path d="M358.414 272.428C358.414 273.014 357.945 273.483 357.476 273.483C356.889 273.483 356.537 273.014 356.537 272.428C356.537 271.841 357.007 271.372 357.476 271.372C358.062 271.372 358.414 271.841 358.414 272.428Z" fill="#263238"/>
<path d="M353.488 271.489L353.84 277.354L356.889 276.298L353.488 271.489Z" fill="#F28F8F"/>
<path d="M338.357 424.33V423.392C338.944 423.626 340.351 428.905 342.814 431.134C344.808 432.893 347.506 435.004 348.092 436.999C348.796 439.11 344.339 440.166 342.58 439.931C340.468 439.579 336.715 438.054 335.777 436.647C334.838 435.239 334.369 433.245 333.665 432.189C332.962 431.134 331.202 430.078 330.733 428.905C330.499 428.201 330.733 426.793 331.085 425.62C331.32 424.565 331.672 423.275 332.023 423.392C332.023 423.509 332.023 424.096 332.023 424.096C332.493 424.565 333.665 425.034 335.19 425.151C336.246 425.151 338.474 425.034 338.357 424.33Z" fill="#263238"/>
<path d="M360.056 414.477C360.408 414.477 360.643 414.946 361.346 415.767C362.167 416.706 363.575 417.761 364.982 418.348C367.328 419.521 371.785 421.28 373.897 422.219C375.187 422.805 375.069 424.33 373.779 425.269C372.489 426.207 369.205 426.793 365.452 425.972C363.34 425.503 360.643 423.626 358.883 423.626C357.124 423.744 353.957 423.744 352.667 422.805C351.377 421.984 351.963 420.107 352.315 418.465C352.667 416.706 353.253 414.008 353.722 414.125V414.712C354.426 415.885 358.297 416.354 359.939 415.415L360.056 414.477Z" fill="#263238"/>
<path d="M348.092 348.203C348.092 348.203 353.019 346.795 356.772 343.276C356.772 343.276 355.13 346.443 350.086 349.259L351.142 371.194L348.092 348.203Z" fill="#263238"/>
<path d="M349.148 294.48C349.5 293.659 350.673 293.19 351.846 293.19C352.901 293.19 353.605 294.011 353.605 294.949C353.605 295.887 353.371 296.943 353.019 297.764C353.019 297.764 351.611 297.412 350.438 297.999C350.438 298.116 349.5 296.709 349.148 294.48Z" fill="#263238"/>
<path d="M353.019 297.882C353.019 297.882 355.13 315.594 355.13 316.649C355.13 317.705 352.901 323.805 351.728 323.805C350.438 323.805 348.444 318.292 348.327 317.471C348.327 316.649 350.438 298.116 350.438 298.116C351.259 297.412 352.315 297.412 353.019 297.882Z" fill="#263238"/>
<path d="M338.592 393.832L343.166 391.252C343.635 391.017 343.987 390.313 343.987 389.844V363.921C343.987 363.335 343.635 362.748 343.166 362.514L312.201 344.684C311.732 344.449 311.028 344.449 310.559 344.684L305.985 347.265C305.516 347.499 305.164 348.203 305.164 348.672V374.595C305.164 375.182 305.516 375.768 305.985 376.003L336.95 393.832C337.419 394.184 338.123 394.184 338.592 393.832Z" fill="#D4DEEB"/>
<path d="M343.987 363.921C343.987 363.686 343.87 363.335 343.753 363.1L336.95 366.971V393.832C337.419 394.067 338.123 394.067 338.592 393.832L343.166 391.252C343.635 391.017 343.987 390.313 343.987 389.844V363.921Z" fill="#F28F8F"/>
<path d="M343.987 363.921C343.987 363.686 343.87 363.335 343.753 363.1L336.95 366.971V393.832C337.419 394.067 338.123 394.067 338.592 393.832L343.166 391.252C343.635 391.017 343.987 390.313 343.987 389.844V363.921Z" fill="#D4DEEB"/>
<path opacity="0.2" d="M343.987 363.921C343.987 363.686 343.87 363.335 343.753 363.1L336.95 366.971V393.832C337.419 394.067 338.123 394.067 338.592 393.832L343.166 391.252C343.635 391.017 343.987 390.313 343.987 389.844V363.921Z" fill="black"/>
<path d="M336.95 366.15L305.985 348.32C305.516 348.086 305.164 348.32 305.164 348.789V374.713C305.164 375.299 305.516 375.886 305.985 376.12L336.95 393.95C337.419 394.184 337.771 393.95 337.771 393.48V367.557C337.771 366.971 337.419 366.384 336.95 366.15Z" fill="#D4DEEB"/>
<path d="M339.647 364.508C340.117 364.742 340.468 365.446 340.468 365.915V392.777L341.289 392.308V365.446C341.289 364.977 340.938 364.273 340.468 364.038L308.682 345.74L307.861 346.209L339.647 364.508Z" fill="#D4DEEB"/>
<path opacity="0.3" d="M339.647 364.508C340.117 364.742 340.468 365.446 340.468 365.915V392.777L341.289 392.308V365.446C341.289 364.977 340.938 364.273 340.468 364.038L308.682 345.74L307.861 346.209L339.647 364.508Z" fill="black"/>
<path d="M340.468 364.038L308.682 345.74L307.861 346.209L339.647 364.508C339.882 364.625 340.117 364.859 340.234 365.094L341.055 364.625C340.82 364.39 340.703 364.156 340.468 364.038Z" fill="#D4DEEB"/>
<path opacity="0.2" d="M340.468 364.038L308.682 345.74L307.861 346.209L339.647 364.508C339.882 364.625 340.117 364.859 340.234 365.094L341.055 364.625C340.82 364.39 340.703 364.156 340.468 364.038Z" fill="black"/>
<path d="M335.659 359.933L335.073 359.581C334.838 359.464 334.487 359.464 334.252 359.581L332.141 360.754L331.789 360.637V361.106C331.789 361.223 331.789 361.223 331.906 361.34L332.61 361.81C332.844 361.927 333.196 361.927 333.431 361.81L335.659 360.519C335.777 360.402 335.777 360.402 335.777 360.285V359.816L335.659 359.933Z" fill="#D4DEEB"/>
<path opacity="0.2" d="M335.659 359.933L335.073 359.581C334.838 359.464 334.487 359.464 334.252 359.581L332.141 360.754L331.789 360.637V361.106C331.789 361.223 331.789 361.223 331.906 361.34L332.61 361.81C332.844 361.927 333.196 361.927 333.431 361.81L335.659 360.519C335.777 360.402 335.777 360.402 335.777 360.285V359.816L335.659 359.933Z" fill="black"/>
<path d="M335.777 359.581L335.073 359.112C334.838 358.994 334.487 358.994 334.252 359.112L332.023 360.402C331.789 360.519 331.789 360.754 332.023 360.871L332.727 361.34C332.962 361.458 333.314 361.458 333.548 361.34L335.777 360.05C336.011 359.933 336.011 359.698 335.777 359.581Z" fill="#D4DEEB"/>
<path d="M318.066 350.549L317.479 350.197C317.245 350.08 316.893 350.08 316.658 350.197L314.547 351.37L314.195 351.253V351.722C314.195 351.839 314.195 351.839 314.312 351.957L315.016 352.426C315.251 352.543 315.603 352.543 315.837 352.426L318.066 351.135C318.183 351.018 318.183 351.018 318.183 350.901V350.432L318.066 350.549Z" fill="#D4DEEB"/>
<path opacity="0.2" d="M318.066 350.549L317.479 350.197C317.245 350.08 316.893 350.08 316.658 350.197L314.547 351.37L314.195 351.253V351.722C314.195 351.839 314.195 351.839 314.312 351.957L315.016 352.426C315.251 352.543 315.603 352.543 315.837 352.426L318.066 351.135C318.183 351.018 318.183 351.018 318.183 350.901V350.432L318.066 350.549Z" fill="black"/>
<path d="M318.183 350.197L317.479 349.728C317.245 349.611 316.893 349.611 316.658 349.728L314.43 351.018C314.195 351.135 314.195 351.37 314.43 351.487L315.133 351.957C315.368 352.074 315.72 352.074 315.954 351.957L318.183 350.666C318.418 350.549 318.418 350.314 318.183 350.197Z" fill="#D4DEEB"/>
<path d="M322.992 349.141V351.839L321.467 352.778V348.672C321.467 348.438 321.584 348.32 321.819 348.438L322.992 349.141Z" fill="#D4DEEB"/>
<path opacity="0.3" d="M322.992 349.141V351.839L321.467 352.778V348.672C321.467 348.438 321.584 348.32 321.819 348.438L322.992 349.141Z" fill="black"/>
<path d="M331.202 351.957V357L330.029 357.704L329.208 357.235V353.012C329.208 352.778 329.091 352.543 328.857 352.426L322.992 349.024L321.819 348.32C321.584 348.203 321.467 348.32 321.467 348.555V352.66L320.646 352.191V347.147C320.646 347.147 320.646 347.147 320.646 347.03C320.646 346.795 320.763 346.561 320.998 346.561L321.467 346.326C321.702 346.209 321.936 346.209 322.171 346.326L330.851 351.37C330.968 351.487 331.202 351.722 331.202 351.957Z" fill="#D4DEEB"/>
<path d="M330.029 352.66V357.704L329.208 357.235V353.012C329.208 352.778 329.091 352.543 328.857 352.426L322.992 349.024L321.819 348.32C321.584 348.203 321.467 348.32 321.467 348.555V352.66L320.646 352.191V347.147C320.646 347.147 320.646 347.147 320.646 347.03C320.646 346.913 320.763 346.795 320.998 346.913L329.678 351.957C329.795 352.191 330.029 352.426 330.029 352.66Z" fill="#D4DEEB"/>
<path opacity="0.2" d="M330.029 352.66V357.704L329.208 357.235V353.012C329.208 352.778 329.091 352.543 328.857 352.426L322.992 349.024L321.819 348.32C321.584 348.203 321.467 348.32 321.467 348.555V352.66L320.646 352.191V347.147C320.646 347.147 320.646 347.147 320.646 347.03C320.646 346.913 320.763 346.795 320.998 346.913L329.678 351.957C329.795 352.191 330.029 352.426 330.029 352.66Z" fill="black"/>
<path d="M323.344 340.227C323.344 340.227 323.344 341.751 323.344 342.455C323.344 343.159 322.406 346.561 322.406 348.672C322.288 349.376 323.227 350.901 324.869 351.605C325.572 351.956 326.863 353.129 327.332 353.129C327.684 353.129 328.739 352.543 328.739 352.543L328.036 352.191C328.036 352.191 327.097 350.784 328.153 349.962L330.264 351.135C330.264 351.135 330.499 350.314 330.264 349.259C330.029 348.203 330.029 346.795 329.912 345.74C329.795 344.684 328.857 343.276 328.857 343.276L329.208 339.757L323.344 340.227Z" fill="#FFA8A7"/>
<path d="M336.363 290.609C336.363 290.609 332.727 291.899 331.085 293.19C329.795 294.245 322.171 316.063 321.936 317.94C321.584 319.934 322.757 340.579 322.757 340.579C322.757 340.579 325.572 342.807 329.678 341.048L330.851 320.403L337.419 303.395C337.419 303.395 339.882 296.239 336.363 290.609Z" fill="#37474F"/>
</svg>
